<?xml version="1.0" encoding="UTF-8"?>
<!DOCTYPE svg PUBLIC "-//W3C//DTD SVG 1.1//EN" "http://www.w3.org/Graphics/SVG/1.1/DTD/svg11.dtd">
<svg version="1.1" xmlns="http://www.w3.org/2000/svg" xmlns:xlink="http://www.w3.org/1999/xlink" x="0" y="0" width="1190" height="1120" viewBox="0, 0, 1190, 1120">
  <g id="Layer_1">
    <path d="M997.271,950.273 C975.271,874.273 923.271,748.273 923.271,748.273 L658.803,756.729 C630.804,791.227 585.271,950.273 585.271,950.273 C570.272,929.274 537.271,874.273 537.271,874.273 L465.271,926.273 C465.271,926.273 565.271,1142.27 647.271,1026.27 L648.693,1026.18 C647.789,1048.49 646.662,1072.53 645.312,1097.39 L928.841,1097.39 C927.22,1067.51 925.919,1038.82 924.943,1012.89 C938.032,1077.36 1101.271,1100.27 1101.271,1100.27 L1135.271,1016.27 z" fill="#FFFFFF"/>
    <path d="M923.271,751.153 C923.271,751.153 975.271,877.153 997.271,953.153 L1135.271,1019.15 L1101.271,1103.15 C1101.271,1103.15 930.271,1079.15 924.271,1011.15" fill="#FFFFFF"/>
    <path d="M923.271,751.153 C923.271,751.153 975.271,877.153 997.271,953.153 L1135.271,1019.15 L1101.271,1103.15 C1101.271,1103.15 930.271,1079.15 924.271,1011.15" fill-opacity="0" stroke="#6C421E" stroke-width="17" stroke-linecap="round" stroke-linejoin="round"/>
    <path d="M346.164,546.93 C399.316,514.179 433.955,460.602 433.955,400.059 C433.955,300.357 340.024,219.531 224.154,219.531 C108.283,219.531 14.351,300.357 14.351,400.059 C14.351,499.762 108.283,580.587 224.154,580.587 C250.025,580.587 274.797,576.547 297.68,569.178 C341.188,605.174 383.897,596.613 383.897,596.613 C357.47,580.432 348.882,560.038 346.164,546.93" fill="#FFFFFF"/>
    <path d="M346.164,546.93 C399.316,514.179 433.955,460.602 433.955,400.059 C433.955,300.357 340.024,219.531 224.154,219.531 C108.283,219.531 14.351,300.357 14.351,400.059 C14.351,499.762 108.283,580.587 224.154,580.587 C250.025,580.587 274.797,576.547 297.68,569.178 C341.188,605.174 383.897,596.613 383.897,596.613 C357.47,580.432 348.882,560.038 346.164,546.93 z" fill-opacity="0" stroke="#6C421E" stroke-width="17" stroke-linecap="round" stroke-linejoin="round"/>
    <g>
      <path d="M130.295,354.114 L159.209,406.585 C167.77,422.118 187.301,427.773 202.836,419.212 C218.372,410.65 224.024,391.118 215.463,375.583 L186.041,322.195 C168.217,323.279 140.907,336.925 130.295,354.114" fill="#FFFFFF"/>
      <path d="M130.295,354.114 L159.209,406.585 C167.77,422.118 187.301,427.773 202.836,419.212 C218.372,410.65 224.024,391.118 215.463,375.583 L186.041,322.195 C168.217,323.279 140.907,336.925 130.295,354.114 z" fill-opacity="0" stroke="#6C421E" stroke-width="17" stroke-linecap="round" stroke-linejoin="round"/>
      <path d="M200.8,348.98 L179.292,309.952 C170.732,294.417 151.201,288.765 135.665,297.325 C120.132,305.886 114.48,325.419 123.04,340.952 L145.054,380.9 C155.665,363.71 178.339,355.447 200.8,348.98" fill="#B3E1F5"/>
      <path d="M200.8,348.98 L179.292,309.952 C170.732,294.417 151.201,288.765 135.665,297.325 C120.132,305.886 114.48,325.419 123.04,340.952 L145.054,380.9 C155.665,363.71 178.339,355.447 200.8,348.98 z" fill-opacity="0" stroke="#6C421E" stroke-width="17" stroke-linecap="round" stroke-linejoin="round"/>
      <path d="M271.646,411.111 L237.644,460.437 C227.578,475.04 231.253,495.04 245.859,505.107 C260.462,515.173 280.46,511.493 290.527,496.89 L325.124,446.7 C316.185,431.241 291.765,412.915 271.646,411.111" fill="#FFFFFF"/>
      <path d="M271.646,411.111 L237.644,460.437 C227.578,475.04 231.253,495.04 245.859,505.107 C260.462,515.173 280.46,511.493 290.527,496.89 L325.124,446.7 C316.185,431.241 291.765,412.915 271.646,411.111 z" fill-opacity="0" stroke="#6C421E" stroke-width="17" stroke-linecap="round" stroke-linejoin="round"/>
      <path d="M307.768,471.88 L333.059,435.191 C343.125,420.587 339.448,400.589 324.844,390.523 C310.241,380.454 290.241,384.134 280.174,398.738 L254.29,436.292 C274.411,438.097 291.94,454.683 307.768,471.88" fill="#B3E1F5"/>
      <path d="M307.768,471.88 L333.059,435.191 C343.125,420.587 339.448,400.589 324.844,390.523 C310.241,380.454 290.241,384.134 280.174,398.738 L254.29,436.292 C274.411,438.097 291.94,454.683 307.768,471.88 z" fill-opacity="0" stroke="#6C421E" stroke-width="17" stroke-linecap="round" stroke-linejoin="round"/>
      <path d="M803.153,1088.78 C803.153,1095.13 798.01,1100.27 791.668,1100.27 C785.322,1100.27 780.18,1095.13 780.18,1088.78 C780.18,1082.44 785.322,1077.3 791.668,1077.3 C798.01,1077.3 803.153,1082.44 803.153,1088.78" fill="#6C421E"/>
    </g>
    <g>
      <path d="M803.153,1031.81 C803.153,1038.15 798.011,1043.3 791.668,1043.3 C785.322,1043.3 780.18,1038.15 780.18,1031.81 C780.18,1025.46 785.322,1020.32 791.668,1020.32 C798.011,1020.32 803.153,1025.46 803.153,1031.81" fill="#6C421E"/>
      <g>
        <path d="M647.271,1029.15 C565.271,1145.15 465.271,929.153 465.271,929.153 L537.271,877.153 C537.271,877.153 570.272,932.154 585.271,953.153 C585.271,953.153 630.804,794.107 658.803,759.609" fill="#FFFFFF"/>
        <path d="M647.271,1029.15 C565.271,1145.15 465.271,929.153 465.271,929.153 L537.271,877.153 C537.271,877.153 570.272,932.154 585.271,953.153 C585.271,953.153 630.804,794.107 658.803,759.609" fill-opacity="0" stroke="#6C421E" stroke-width="17" stroke-linecap="round" stroke-linejoin="round"/>
      </g>
    </g>
    <g>
      <g>
        <path d="M725.533,762.8 L791.513,968.352 L857.943,756.651" fill="#FFFFFF"/>
        <path d="M725.533,762.8 L791.513,968.352 L857.943,756.651" fill-opacity="0" stroke="#6C421E" stroke-width="17" stroke-linecap="round" stroke-linejoin="round"/>
      </g>
      <g>
        <path d="M884.343,771.647 L903.474,861.591 L863.259,876.966 L892.931,927.686 L824.453,990.734" fill="#FFFFFF"/>
        <path d="M884.343,771.647 L903.474,861.591 L863.259,876.966 L892.931,927.686 L824.453,990.734" fill-opacity="0" stroke="#6C421E" stroke-width="17" stroke-linecap="round" stroke-linejoin="round"/>
      </g>
      <g>
        <path d="M699.133,771.647 L680.002,861.591 L720.219,876.966 L690.547,927.686 L759.02,990.734" fill="#FFFFFF"/>
        <path d="M699.133,771.647 L680.002,861.591 L720.219,876.966 L690.547,927.686 L759.02,990.734" fill-opacity="0" stroke="#6C421E" stroke-width="17" stroke-linecap="round" stroke-linejoin="round"/>
      </g>
    </g>
    <g>
      <path d="M498.926,461.5 C484.095,432.496 472.997,388.859 473.163,323.202 C473.762,82.411 711.456,43.212 711.456,43.212 C711.456,43.212 471.31,147.68 531.31,463.68 z" fill="#FFFFFF"/>
      <path d="M709.02,45.438 C709.02,45.438 502.645,109.68 501.163,322.627 C500.709,387.626 511.647,430.828 525.87,459.542 L1082.462,463.68 C1093.802,453.037 1098.732,428.16 1101.742,413.723 C1114.542,352.425 1110.952,280.239 1091.842,220.869 C1067.802,146.162 1008.652,91.899 944.397,56.702 C879.678,21.253 776.993,-4.214 709.84,47.881" fill="#AD9B8E"/>
      <path d="M714.311,45.68 C784.334,-6.942 869.86,18.784 937.346,54.59 C1004.354,90.143 1066.021,144.954 1091.102,220.416 C1111.021,280.385 1114.771,353.301 1101.422,415.218 C1098.271,429.802 1093.131,454.93 1081.312,465.68 M713.456,43.212 C713.456,43.212 475.762,82.411 475.163,323.202 C474.998,388.859 486.096,432.496 500.926,461.5" fill-opacity="0" stroke="#6C421E" stroke-width="17" stroke-linecap="round" stroke-linejoin="round"/>
    </g>
    <g>
      <path d="M825.04,805.764 C841.7,790.814 848.2,763.823 856.461,744.273 C856.461,744.273 722.918,748.877 721.891,748.914 C722.956,748.876 734.18,773.908 734.706,775.907 C744.272,812.338 791.09,836.219 825.04,805.764" fill="#FEF4E2"/>
      <path d="M825.04,805.764 C841.7,790.814 848.2,763.823 856.461,744.273 C856.461,744.273 722.918,748.877 721.891,748.914 C722.956,748.876 734.18,773.908 734.706,775.907 C744.272,812.338 791.09,836.219 825.04,805.764 z" fill-opacity="0" stroke="#6C421E" stroke-width="17" stroke-linecap="round" stroke-linejoin="round"/>
      <g>
        <path d="M1043.161,531.663 C1068.812,529.122 1099.771,529.847 1104.711,498.831 C1111.192,458.031 1073.552,444.672 1039.062,449.581" fill="#FEF4E2"/>
        <path d="M1043.161,531.663 C1068.812,529.122 1099.771,529.847 1104.711,498.831 C1111.192,458.031 1073.552,444.672 1039.062,449.581" fill-opacity="0" stroke="#6C421E" stroke-width="17" stroke-linecap="round" stroke-linejoin="round"/>
      </g>
      <g>
        <path d="M531.672,531.663 C506.023,529.122 475.062,529.847 470.125,498.831 C463.643,458.031 501.284,444.672 535.778,449.581" fill="#FEF4E2"/>
        <path d="M531.672,531.663 C506.023,529.122 475.062,529.847 470.125,498.831 C463.643,458.031 501.284,444.672 535.778,449.581" fill-opacity="0" stroke="#6C421E" stroke-width="17" stroke-linecap="round" stroke-linejoin="round"/>
      </g>
      <path d="M962.466,201.352 C905.003,157.659 826.333,151.218 755.091,155.271 C688.072,159.081 618.068,175.998 573.749,229.58 C526.938,286.179 523.701,361.59 527.039,431.103 C532.888,552.929 534.68,751.969 692.517,766.445 C755.626,772.234 819.726,774 882.945,769.031 C1050.612,755.853 1046.652,528.482 1050.662,401.293 C1052.762,334.752 1027.752,263.056 979.238,215.797 C973.882,210.581 968.283,205.777 962.466,201.352" fill="#FEF4E2"/>
      <path d="M962.466,201.352 C905.003,157.659 826.333,151.218 755.091,155.271 C688.072,159.081 618.068,175.998 573.749,229.58 C526.938,286.179 523.701,361.59 527.039,431.103 C532.888,552.929 534.68,751.969 692.517,766.445 C755.626,772.234 819.726,774 882.945,769.031 C1050.612,755.853 1046.652,528.482 1050.662,401.293 C1052.762,334.752 1027.752,263.056 979.238,215.797 C973.882,210.581 968.283,205.777 962.466,201.352 z" fill-opacity="0" stroke="#6C421E" stroke-width="1"/>
      <path d="M928.851,526.572 C925.997,540.174 937.847,552.638 953.458,557.161 C968.605,561.559 985.915,562.62 998.671,554.276 C1011.311,546.003 1020.801,535.116 1015.641,521.781 C1011.391,510.827 1002.228,500.294 987.99,496.279 C960.392,488.5 933.269,505.478 928.851,526.572" fill="#FCDFC5"/>
      <path d="M559.88,526.501 C556.79,541.224 569.62,554.715 586.519,559.616 C602.915,564.376 621.654,565.525 635.464,556.491 C649.152,547.536 659.417,535.749 653.836,521.314 C649.238,509.453 639.316,498.054 623.901,493.705 C594.026,485.286 564.664,503.665 559.88,526.501" fill="#FCDFC5"/>
      <path d="M963.444,199.469 C935.309,177.643 900.557,162.801 859.575,157.804 C817.045,152.617 773.36,154.077 730.649,156.054 C669.756,158.87 605.811,186.365 568.543,234.294 C525.54,289.597 522.813,365.15 526.004,431.655 C531.569,547.521 530.956,752.274 691.485,766.996 C754.594,772.784 818.694,774.552 881.913,769.583 C1049.572,756.405 1045.622,529.031 1049.632,401.841 C1052.172,321.266 1022.262,245.101 963.444,199.469 z" fill-opacity="0" stroke="#6C421E" stroke-width="17" stroke-linecap="round" stroke-linejoin="round"/>
      <path d="M791.343,480.509 C789.853,479.273 788.165,474.962 787.005,470.184" fill-opacity="0" stroke="#6C421E" stroke-width="15" stroke-linecap="round" stroke-linejoin="round"/>
      <path d="M967.31,170.652 C1021.311,222.989 1035.221,262.68 1035.221,262.68 C1030.351,294.097 967.964,270.01 950.578,263.944 C914.572,251.386 888.787,227.919 859.339,202.127 C862.177,216.378 877.353,232.833 878.234,246.903 C880.027,275.512 837.933,261.582 825.769,254.582 C776.654,226.32 731.31,180.823 731.31,111.178" fill="#AD9B8E"/>
      <g>
        <path d="M737.31,149.241 C748.31,192.062 789.683,232.667 827.773,254.585 C839.933,261.582 882.027,275.512 880.234,246.903 C879.353,232.833 864.177,216.378 861.339,202.127 C890.787,227.919 916.572,251.386 952.578,263.944 C969.964,270.01 1025.261,297.253 1030.131,265.836" fill="#AD9B8E"/>
        <path d="M737.31,149.241 C748.31,192.062 789.683,232.667 827.773,254.585 C839.933,261.582 882.027,275.512 880.234,246.903 C879.353,232.833 864.177,216.378 861.339,202.127 C890.787,227.919 916.572,251.386 952.578,263.944 C969.964,270.01 1025.261,297.253 1030.131,265.836" fill-opacity="0" stroke="#6C421E" stroke-width="17" stroke-linecap="round" stroke-linejoin="round"/>
      </g>
      <path d="M712.345,255.68 C695.624,235.254 676.162,250.448 673.117,265.172" fill-opacity="0" stroke="#6C421E" stroke-width="12.258" stroke-linecap="round" stroke-linejoin="round"/>
      <path d="M928.842,1100.27 C924.038,1011.72 922.055,933.653 922.922,906.751" fill="#FFFFFF"/>
    </g>
    <path d="M928.842,1100.27 C924.038,1011.72 922.055,933.653 922.922,906.751" fill-opacity="0" stroke="#6C421E" stroke-width="17" stroke-linecap="round" stroke-linejoin="round"/>
    <path d="M651.235,906.751 C652.102,933.653 650.12,1011.72 645.313,1100.27" fill="#FFFFFF"/>
    <path d="M651.235,906.751 C652.102,933.653 650.12,1011.72 645.313,1100.27" fill-opacity="0" stroke="#6C421E" stroke-width="17" stroke-linecap="round" stroke-linejoin="round"/>
    <g>
      <path d="M708.917,455.316 C704.25,415.983 664.955,428.465 665.585,458.65 M867.578,455.316 C872.244,415.983 911.539,428.465 910.911,458.65" fill-opacity="0" stroke="#6C421E" stroke-width="17.6" stroke-linecap="round" stroke-linejoin="round"/>
      <path d="M740.935,647.686 C740.935,647.686 752.935,693.686 788.935,693.686 C824.935,693.686 835.935,648.686 835.935,648.686" fill-opacity="0" stroke="#6C421E" stroke-width="15" stroke-linecap="round" stroke-linejoin="round"/>
      <path d="M1131.952,891.246 L1097.371,1103.87 L887.45,1065.07 L943.7,810.566 L1150.952,851.923 L1156.042,924.046 L1130.332,922.133" fill="#FFFFFF"/>
    </g>
    <path d="M1131.952,891.246 L1097.371,1103.87 L887.45,1065.07 L943.7,810.566 L1150.952,851.923 L1156.042,924.046 L1130.332,922.133" fill-opacity="0" stroke="#6C421E" stroke-width="17" stroke-linecap="round" stroke-linejoin="round"/>
    <g>
      <path d="M1063.781,1033.86 L945.466,1010.99 L972.471,865.819 L1090.131,889.34 z" fill="#B3E1F5"/>
      <path d="M1063.781,1033.86 L945.466,1010.99 L972.471,865.819 L1090.131,889.34 L1063.781,1033.86 z" fill-opacity="0" stroke="#6C421E" stroke-width="17" stroke-linecap="round" stroke-linejoin="round"/>
      <g>
        <path d="M993.626,900.84 L1061.651,913.399" fill="#6C421E"/>
        <path d="M993.626,900.84 L1061.651,913.399" fill-opacity="0" stroke="#FFFFFF" stroke-width="17" stroke-linecap="round" stroke-linejoin="round"/>
      </g>
      <g>
        <path d="M986.127,936.839 L1054.151,949.398" fill="#6C421E"/>
        <path d="M986.127,936.839 L1054.151,949.398" fill-opacity="0" stroke="#FFFFFF" stroke-width="17" stroke-linecap="round" stroke-linejoin="round"/>
      </g>
      <g>
        <path d="M978.628,972.838 L1046.651,985.397" fill="#6C421E"/>
        <path d="M978.628,972.838 L1046.651,985.397" fill-opacity="0" stroke="#FFFFFF" stroke-width="17" stroke-linecap="round" stroke-linejoin="round"/>
      </g>
    </g>
    <g>
      <path d="M1124.582,958.326 C1108.281,958.404 1091.042,974.817 1103.131,990.073 C1112.062,1001.335 1126.682,1013.36 1134.612,1023.28 C1122.901,1015.35 1100.432,1013.13 1088.202,1019.02 C1070.062,1027.76 1092.802,1045.76 1101.192,1054.95 C1098.001,1051.46 1083.261,1061.98 1081.021,1063.83 C1069.692,1073.16 1068.542,1081.61 1076.411,1093.57 C1098.322,1126.85 1133.492,1087.15 1146.842,1065.72 C1157.911,1047.95 1181.141,1020.12 1175.962,997.587 C1171.112,976.516 1145.342,958.233 1124.582,958.326" fill="#FEF4E2"/>
      <path d="M1124.582,958.326 C1108.281,958.404 1091.042,974.817 1103.131,990.073 C1112.062,1001.335 1126.682,1013.36 1134.612,1023.28 C1122.901,1015.35 1100.432,1013.13 1088.202,1019.02 C1070.062,1027.76 1092.802,1045.76 1101.192,1054.95 C1098.001,1051.46 1083.261,1061.98 1081.021,1063.83 C1069.692,1073.16 1068.542,1081.61 1076.411,1093.57 C1098.322,1126.85 1133.492,1087.15 1146.842,1065.72 C1157.911,1047.95 1181.141,1020.12 1175.962,997.587 C1171.112,976.516 1145.342,958.233 1124.582,958.326 z" fill-opacity="0" stroke="#6C421E" stroke-width="17" stroke-linecap="round" stroke-linejoin="round"/>
    </g>
    <g>
      <g>
        <path d="M481.999,777.156 C483.365,747.221 483.776,712.078 465.633,686.492 C448.815,662.776 421.125,661.995 403.113,686.221 C384.318,711.5 416.225,773.152 436.352,796.633 C411.483,802.76 394.803,854.784 396.207,876.941 C400.022,937.022 476.289,964.067 523.109,930.573 C578.656,890.839 570.281,826.65 533.826,793.175 C520.784,781.2 491.473,776.514 479.402,779.018" fill="#FEF4E2"/>
        <path d="M481.999,777.156 C483.365,747.221 483.776,712.078 465.633,686.492 C448.815,662.776 421.125,661.995 403.113,686.221 C384.318,711.5 416.225,773.152 436.352,796.633 C411.483,802.76 394.803,854.784 396.207,876.941 C400.022,937.022 476.289,964.067 523.109,930.573 C578.656,890.839 570.281,826.65 533.826,793.175 C520.784,781.2 491.473,776.514 479.402,779.018" fill-opacity="0" stroke="#6C421E" stroke-width="17" stroke-linecap="round" stroke-linejoin="round"/>
      </g>
      <path d="M461.922,820.798 C479.812,827.122 485.358,856.654 473.387,870.54 C466.331,878.725 454.085,881.336 448.512,870.073 C448.676,903.807 429.014,892.239 429.014,892.239" fill="#FEF4E2"/>
      <path d="M507.183,834.607 C460.985,847.4 479.952,878.591 517.682,881.104 M461.921,820.798 C479.811,827.122 485.357,856.654 473.386,870.54 C466.33,878.725 454.084,881.336 448.511,870.073 C448.675,903.807 429.013,892.239 429.013,892.239" fill-opacity="0" stroke="#6C421E" stroke-width="17" stroke-linecap="round" stroke-linejoin="round"/>
    </g>
  </g>
</svg>
