<?xml version="1.0" encoding="utf-8"?>
<svg version="1.1" id="Layer_1" xmlns="http://www.w3.org/2000/svg" xmlns:xlink="http://www.w3.org/1999/xlink" x="0px" y="0px"
	 viewBox="0 0 1742 1689.85" enable-background="new 0 0 1742 1689.85" xml:space="preserve">
<g>
	<polygon fill="#26159F" points="1695.688,673.327 1431.952,216.523 1134.736,388.12 1134.736,44.925 607.264,44.925 
		607.264,388.12 310.048,216.523 46.312,673.327 343.527,844.925 46.312,1016.523 310.048,1473.327 607.264,1301.73 
		607.264,1644.925 1134.736,1644.925 1134.736,1301.73 1431.952,1473.327 1695.688,1016.523 1398.473,844.925 	"/>
	<path fill="#FFFFFF" d="M1329.33,584.685c-125.003-36.79-255.106-161.757-286.702-132.146
		c-42.195,35.805-95.465,56.027-149.304,66.664c-0.196-61.149-1.315-41.807,13.088-58.61c21.01-17.727,20.485-52.963,1.313-71.829
		c-35.8-37.412-96.355-2.05-87.236,44.165c1.707,16.852,15.189,28.014,26.788,38.694c2.714,15.67,1.138,31.69,1.576,47.536
		c-45.872-8.842-90.87-25.256-129.782-51.432c-12.256-7.704-22.849-24.03-39.394-18.997
		c-58.521,13.81-152.36,99.113-259.958,133.853c-30.946,10.855-64.432,8.535-95.859,17.246v3.721
		c34.711,12.3,73.273,11.512,109.122,4.684c11.185,9.572,0.946,22.988,79.008-2.057c15.495,15.583,37.206,5.033,55.065,0.394
		c9.586-3.546,19.26,1.444,28.714,2.889c13.044,3.633,26-1.97,38.913-3.108c11.599,0.656,23.024,3.939,34.667,2.801
		c12.344-0.963,23.549-6.653,35.411-9.717c11.162,1.138,22.28,5.602,33.66,3.414c11.862-1.926,22.061-8.579,33.047-13
		c23.481-1.174,19.837,15.318,78.044-23.155c1.27,96.385,3.283,192.813,3.939,289.241c-85.34-34.451-196.906-43.621-213.385-77.519
		c-6.566-25.212,15.627-48.149,38.169-55.283c25.212-5.209,51.432-1.313,76.863-5.865c26.797-4.797,37.785-13.566,62.361-34.667
		c1.989-1.708,1.623-4.885-0.703-6.095c-35.755-18.601-32.091-0.504-90.469-26.201c-12.152-5.352-25.908,12.097-46.519,21.354
		c-27.576,12.869-55.239,29.327-72.047,55.546c-18.034,27.401-13.832,65.789,6.566,90.781
		c37.278,45.773,120.961,55.029,200.21,76.162c-11.906,10.023-24.03,19.96-33.835,32.128
		c-25.956,31.515-37.994,74.63-30.902,114.943c8.667,38.825,44.516,61.849,76.644,80.452c-23.768,16.064-47.492,34.535-60.58,60.798
		c-37.482,78.699,21.423,110.668,87.105,158.759c-21.476,26.966-52.186,72.509-34.623,102.381
		c8.144-29.637,0.891-40.775,42.283-80.058c1.182,31.034,0.919,62.111,1.357,93.189c6.041,0,12.081,0.044,18.122,0.044
		c0.219-31.122,0.482-62.287,1.138-93.408c43.223,41.739,33.393,49.661,42.634,79.97c3.239-7.835,6.697-16.108,4.64-24.731
		c-3.37-29.765-21.098-55.021-39.832-77.388c60.996-43.119,114.062-73.697,94.633-140.024
		c-9.192-35.367-38.431-60.011-67.452-79.707c65.804-37.209,92.848-72.307,71.829-146.59c-9.498-33.266-33.529-59.748-60.011-80.933
		c57.647-15.627,118.927-22.63,171.846-52.001c46.608-25.04,88.801-110.658-34.273-168.826c-14.134-5.974-26.109-19.899-41.3-22.898
		c-13.306-2.627-22.969,10.659-44.492,13.313c-28.354,3.496-68.586,7.277-53.314,20.546c13.02,11.312,28.911,25.522,45.916,30.097
		c27.839,7.485,56.903,4.464,85.223,7.528c24.643,4.246,48.98,26.394,45.478,53.095c-8.948,36.165-122.289,44.86-214.086,80.934
		c0.394-96.428,2.889-192.857,3.633-289.285c56.207,37.131,52.507,23.303,78.132,23.199c10.987,4.552,21.142,11.599,33.178,13.132
		c11.424,1.926,22.586-2.101,33.879-3.195c11.687,2.933,22.805,8.448,34.973,9.498c11.862,1.444,23.461-2.189,35.236-2.845
		c12.781,1.444,25.606,6.697,38.519,3.151c9.411-1.444,19.04-6.303,28.627-2.889c17.859,4.421,39.525,15.364,54.889-0.394
		c71.929,24.825,69.939,12.084,79.226,2.232c35.98,7.354,73.755,5.953,109.209-3.589v-4.202
		C1389.428,590.594,1358.219,593.921,1329.33,584.685z M731.278,676.157c0,15.442-23.372,15.458-23.372,0
		C707.906,660.715,731.278,660.699,731.278,676.157z M795.757,1035.311c-10.68-46.004,17.99-93.189,58.917-113.586
		c0.7,55.764,1.926,111.53,2.495,167.294C833.751,1075.537,806.219,1061.968,795.757,1035.311z M797.377,1252.111
		c-11.599-13.438-7.879-33.091-0.656-47.667c12.694-24.643,37.599-38.782,60.273-52.832c2.933,53.489,1.663,107.153,3.283,160.685
		C837.909,1293.868,815.848,1274.521,797.377,1252.111z M1014.957,687.843c-15.442,0-15.458-23.372,0-23.372
		C1030.399,664.471,1030.415,687.843,1014.957,687.843z M948.125,1210.528c12.376,35.394-2.164,45.049-66.401,102.163
		c1.138-53.708,1.182-107.415,2.714-161.123C909.169,1166.537,936.657,1182.383,948.125,1210.528z M947.119,1032.116
		c-8.579,28.846-38.431,42.764-62.374,57.078c1.051-55.94,1.532-111.836,2.714-167.776
		C927.115,941.991,955.479,986.725,947.119,1032.116z"/>
</g>
</svg>
